{
	"asset":{
		"generator":"Khronos glTF Blender I/O v4.0.44",
		"version":"2.0"
	},
	"extensionsUsed":[
		"KHR_materials_specular",
		"KHR_materials_ior",
		"KHR_lights_punctual"
	],
	"extensionsRequired":[
		"KHR_lights_punctual"
	],
	"extensions":{
		"KHR_lights_punctual":{
			"lights":[
				{
					"color":[
						1,
						0.8100746273994446,
						0.6598950624465942
					],
					"intensity":2.174056676516132,
					"type":"point",
					"name":"Point"
				}
			]
		}
	},
	"scene":0,
	"scenes":[
		{
			"name":"Scene",
			"nodes":[
				0,
				1,
				2,
				3,
				4,
				5,
				6,
				7
			]
		}
	],
	"nodes":[
		{
			"mesh":0,
			"name":"Monitor",
			"scale":[
				0.15931612253189087,
				0.15931612253189087,
				0.15931612253189087
			],
			"translation":[
				0.01877943053841591,
				0.9515596628189087,
				0.5212748050689697
			]
		},
		{
			"mesh":1,
			"name":"shroom",
			"scale":[
				0.0446198470890522,
				0.0446198470890522,
				0.0446198470890522
			],
			"translation":[
				0.4829162657260895,
				0.9213658571243286,
				0.5042172074317932
			]
		},
		{
			"mesh":2,
			"name":"Mouse",
			"rotation":[
				0.7069106101989746,
				-0.7069104313850403,
				-0.016658484935760498,
				0.016658484935760498
			],
			"scale":[
				0.01811854913830757,
				0.010959610342979431,
				0.01811854913830757
			],
			"translation":[
				0.16131077706813812,
				0.9397159218788147,
				0.7813881039619446
			]
		},
		{
			"mesh":3,
			"name":"Keyboard",
			"rotation":[
				0.7069709897041321,
				0.013856811448931694,
				-0.01385681051760912,
				0.7069711089134216
			],
			"scale":[
				0.08854097127914429,
				0.08974609524011612,
				0.08974586427211761
			],
			"translation":[
				-0.11017735302448273,
				0.9358235597610474,
				0.7888218760490417
			]
		},
		{
			"mesh":4,
			"name":"Desk",
			"scale":[
				0.6499999761581421,
				0.16600258648395538,
				0.30000001192092896
			],
			"translation":[
				-0.007092632353305817,
				0.7560155987739563,
				0.6617295742034912
			]
		},
		{
			"mesh":5,
			"name":"Pad",
			"rotation":[
				0,
				0.006486957892775536,
				0,
				0.9999789595603943
			],
			"scale":[
				0.4000000059604645,
				0.03112548217177391,
				0.17499999701976776
			],
			"translation":[
				-0.012344766408205032,
				0.8939359188079834,
				0.7563865780830383
			]
		},
		{
			"extensions":{
				"KHR_lights_punctual":{
					"light":0
				}
			},
			"name":"Point",
			"rotation":[
				-0.7071068286895752,
				0,
				0,
				0.7071068286895752
			],
			"translation":[
				0.019828641787171364,
				1.3521116971969604,
				0.534625768661499
			]
		},
		{
			"camera":0,
			"name":"Camera",
			"rotation":[
				-0.12994660437107086,
				0.005249881185591221,
				-0.0010482026264071465,
				0.9915065765380859
			],
			"translation":[
				0.00750390812754631,
				1.5793691873550415,
				2.8485660552978516
			]
		}
	],
	"cameras":[
		{
			"name":"Camera",
			"perspective":{
				"aspectRatio":1.7777777777777777,
				"yfov":0.39959652046304894,
				"zfar":1000,
				"znear":0.10000000149011612
			},
			"type":"perspective"
		}
	],
	"materials":[
		{
			"doubleSided":true,
			"name":"Main MAt",
			"pbrMetallicRoughness":{
				"baseColorFactor":[
					0,
					0,
					0,
					1
				],
				"metallicFactor":0,
				"roughnessFactor":0.5
			}
		},
		{
			"doubleSided":true,
			"emissiveFactor":[
				0.7324793934822083,
				0.7324793934822083,
				0.7324793934822083
			],
			"extensions":{
				"KHR_materials_specular":{
					"specularColorFactor":[
						0.9119266271591187,
						0.9119266271591187,
						0.9119266271591187
					]
				},
				"KHR_materials_ior":{
					"ior":1.4500000476837158
				}
			},
			"name":"Display",
			"pbrMetallicRoughness":{
				"baseColorFactor":[
					0.800000011920929,
					0.800000011920929,
					0.800000011920929,
					1
				],
				"metallicFactor":0.35779815912246704,
				"roughnessFactor":0.5
			}
		},
		{
			"doubleSided":true,
			"name":"Main",
			"pbrMetallicRoughness":{
				"baseColorFactor":[
					0.800000011920929,
					0.800000011920929,
					0.800000011920929,
					1
				],
				"metallicFactor":0,
				"roughnessFactor":0.5
			}
		},
		{
			"doubleSided":true,
			"name":"Stand",
			"pbrMetallicRoughness":{
				"baseColorFactor":[
					0.16971692442893982,
					0,
					0.0018702945671975613,
					1
				],
				"metallicFactor":0,
				"roughnessFactor":0.5
			}
		},
		{
			"doubleSided":true,
			"name":"Plants",
			"pbrMetallicRoughness":{
				"baseColorTexture":{
					"index":0
				},
				"metallicFactor":0,
				"roughnessFactor":0.8500000238418579
			}
		},
		{
			"doubleSided":true,
			"name":"Material.002",
			"pbrMetallicRoughness":{
				"baseColorFactor":[
					0.4460536539554596,
					0.4460536539554596,
					0.4460536539554596,
					1
				],
				"metallicFactor":0,
				"roughnessFactor":0.30454546213150024
			}
		},
		{
			"doubleSided":true,
			"extensions":{
				"KHR_materials_specular":{
					"specularFactor":0
				},
				"KHR_materials_ior":{
					"ior":1.4500000476837158
				}
			},
			"name":"Small_Buttons",
			"normalTexture":{
				"index":1
			},
			"pbrMetallicRoughness":{
				"baseColorTexture":{
					"index":2
				},
				"metallicFactor":0
			}
		},
		{
			"doubleSided":true,
			"extensions":{
				"KHR_materials_specular":{
					"specularFactor":0
				},
				"KHR_materials_ior":{
					"ior":1.4500000476837158
				}
			},
			"name":"Big_Buttons",
			"normalTexture":{
				"index":3
			},
			"pbrMetallicRoughness":{
				"baseColorTexture":{
					"index":4
				},
				"metallicFactor":0
			}
		},
		{
			"doubleSided":true,
			"extensions":{
				"KHR_materials_specular":{
					"specularFactor":0
				},
				"KHR_materials_ior":{
					"ior":1.4500000476837158
				}
			},
			"name":"Chassis",
			"normalTexture":{
				"index":5
			},
			"pbrMetallicRoughness":{
				"baseColorTexture":{
					"index":6
				},
				"metallicRoughnessTexture":{
					"index":7
				}
			}
		},
		{
			"doubleSided":true,
			"name":"Material.001",
			"pbrMetallicRoughness":{
				"baseColorFactor":[
					0,
					0,
					0,
					1
				],
				"metallicFactor":0,
				"roughnessFactor":0.8808290362358093
			}
		},
		{
			"doubleSided":true,
			"name":"Material",
			"pbrMetallicRoughness":{
				"baseColorFactor":[
					0.04222085326910019,
					0.02362906187772751,
					0.010742737911641598,
					1
				],
				"metallicFactor":0
			}
		}
	],
	"meshes":[
		{
			"name":"Cube.002",
			"primitives":[
				{
					"attributes":{
						"POSITION":0,
						"NORMAL":1,
						"TEXCOORD_0":2
					},
					"indices":3,
					"material":0
				},
				{
					"attributes":{
						"POSITION":4,
						"NORMAL":5,
						"TEXCOORD_0":6
					},
					"indices":7,
					"material":1
				},
				{
					"attributes":{
						"POSITION":8,
						"NORMAL":9,
						"TEXCOORD_0":10
					},
					"indices":11,
					"material":2
				},
				{
					"attributes":{
						"POSITION":12,
						"NORMAL":13,
						"TEXCOORD_0":14
					},
					"indices":15,
					"material":3
				}
			]
		},
		{
			"name":"Cylinder.002",
			"primitives":[
				{
					"attributes":{
						"POSITION":16,
						"NORMAL":17,
						"TEXCOORD_0":18
					},
					"indices":19,
					"material":4
				}
			]
		},
		{
			"name":"Mesh.002",
			"primitives":[
				{
					"attributes":{
						"POSITION":20,
						"NORMAL":21,
						"TEXCOORD_0":22
					},
					"indices":23,
					"material":5
				}
			]
		},
		{
			"name":"Small Buttons.001",
			"primitives":[
				{
					"attributes":{
						"POSITION":24,
						"NORMAL":25,
						"TEXCOORD_0":26
					},
					"indices":27,
					"material":6
				},
				{
					"attributes":{
						"POSITION":28,
						"NORMAL":29,
						"TEXCOORD_0":30
					},
					"indices":31,
					"material":7
				},
				{
					"attributes":{
						"POSITION":32,
						"NORMAL":33,
						"TEXCOORD_0":34
					},
					"indices":35,
					"material":8
				}
			]
		},
		{
			"name":"Cube",
			"primitives":[
				{
					"attributes":{
						"POSITION":36,
						"NORMAL":37,
						"TEXCOORD_0":38
					},
					"indices":39,
					"material":9
				}
			]
		},
		{
			"name":"Cube.004",
			"primitives":[
				{
					"attributes":{
						"POSITION":40,
						"NORMAL":41,
						"TEXCOORD_0":42
					},
					"indices":43,
					"material":10
				}
			]
		}
	],
	"textures":[
		{
			"sampler":0,
			"source":0
		},
		{
			"sampler":0,
			"source":1
		},
		{
			"sampler":0,
			"source":2
		},
		{
			"sampler":0,
			"source":3
		},
		{
			"sampler":0,
			"source":4
		},
		{
			"sampler":0,
			"source":5
		},
		{
			"sampler":0,
			"source":6
		},
		{
			"sampler":0,
			"source":7
		}
	],
	"images":[
		{
			"mimeType":"image/png",
			"name":"towercolours4",
			"uri":"textures/towercolours4.png"
		},
		{
			"mimeType":"image/png",
			"name":"Small_Buttons_normal",
			"uri":"textures/Small_Buttons_normal.png"
		},
		{
			"mimeType":"image/jpeg",
			"name":"Small_Buttons_albedo",
			"uri":"textures/Small_Buttons_albedo.jpg"
		},
		{
			"mimeType":"image/png",
			"name":"Big_Buttons_normal",
			"uri":"textures/Big_Buttons_normal.png"
		},
		{
			"mimeType":"image/jpeg",
			"name":"Big_Buttons_albedo",
			"uri":"textures/Big_Buttons_albedo.jpg"
		},
		{
			"mimeType":"image/png",
			"name":"Chassis_normal",
			"uri":"textures/Chassis_normal.png"
		},
		{
			"mimeType":"image/jpeg",
			"name":"Chassis_albedo",
			"uri":"textures/Chassis_albedo.jpg"
		},
		{
			"mimeType":"image/png",
			"name":"Chassis_metallic",
			"uri":"textures/Chassis_metallic.png"
		}
	],
	"accessors":[
		{
			"bufferView":0,
			"componentType":5126,
			"count":716,
			"max":[
				0.9994563460350037,
				1.0834492444992065,
				0.17010313272476196
			],
			"min":[
				-1.011277437210083,
				-0.18542656302452087,
				-0.9430538415908813
			],
			"type":"VEC3"
		},
		{
			"bufferView":1,
			"componentType":5126,
			"count":716,
			"type":"VEC3"
		},
		{
			"bufferView":2,
			"componentType":5126,
			"count":716,
			"type":"VEC2"
		},
		{
			"bufferView":3,
			"componentType":5123,
			"count":1464,
			"type":"SCALAR"
		},
		{
			"bufferView":4,
			"componentType":5126,
			"count":28,
			"max":[
				1.8669646978378296,
				2.3932435512542725,
				-0.23424747586250305
			],
			"min":[
				-1.8669646978378296,
				0.5078433752059937,
				-0.23424747586250305
			],
			"type":"VEC3"
		},
		{
			"bufferView":5,
			"componentType":5126,
			"count":28,
			"type":"VEC3"
		},
		{
			"bufferView":6,
			"componentType":5126,
			"count":28,
			"type":"VEC2"
		},
		{
			"bufferView":7,
			"componentType":5123,
			"count":78,
			"type":"SCALAR"
		},
		{
			"bufferView":8,
			"componentType":5126,
			"count":448,
			"max":[
				1.9242645502090454,
				2.4505434036254883,
				-0.2098124921321869
			],
			"min":[
				-1.9242645502090454,
				0.45054349303245544,
				-0.473703533411026
			],
			"type":"VEC3"
		},
		{
			"bufferView":9,
			"componentType":5126,
			"count":448,
			"type":"VEC3"
		},
		{
			"bufferView":10,
			"componentType":5126,
			"count":448,
			"type":"VEC2"
		},
		{
			"bufferView":11,
			"componentType":5123,
			"count":918,
			"type":"SCALAR"
		},
		{
			"bufferView":12,
			"componentType":5126,
			"count":276,
			"max":[
				0.41102665662765503,
				1.2000541687011719,
				-0.47366681694984436
			],
			"min":[
				-0.41102659702301025,
				0.6562073230743408,
				-0.7230436205863953
			],
			"type":"VEC3"
		},
		{
			"bufferView":13,
			"componentType":5126,
			"count":276,
			"type":"VEC3"
		},
		{
			"bufferView":14,
			"componentType":5126,
			"count":276,
			"type":"VEC2"
		},
		{
			"bufferView":15,
			"componentType":5123,
			"count":552,
			"type":"SCALAR"
		},
		{
			"bufferView":16,
			"componentType":5126,
			"count":547,
			"max":[
				1.0536478757858276,
				4.394946098327637,
				1.7037806510925293
			],
			"min":[
				-1.0536478757858276,
				0,
				-1.7037806510925293
			],
			"type":"VEC3"
		},
		{
			"bufferView":17,
			"componentType":5126,
			"count":547,
			"type":"VEC3"
		},
		{
			"bufferView":18,
			"componentType":5126,
			"count":547,
			"type":"VEC2"
		},
		{
			"bufferView":19,
			"componentType":5123,
			"count":798,
			"type":"SCALAR"
		},
		{
			"bufferView":20,
			"componentType":5126,
			"count":4028,
			"max":[
				0.8088136315345764,
				2.63574481010437,
				2.707468032836914
			],
			"min":[
				-1.1968886852264404,
				-2.6642985343933105,
				-3.2650320529937744
			],
			"type":"VEC3"
		},
		{
			"bufferView":21,
			"componentType":5126,
			"count":4028,
			"type":"VEC3"
		},
		{
			"bufferView":22,
			"componentType":5126,
			"count":4028,
			"type":"VEC2"
		},
		{
			"bufferView":23,
			"componentType":5123,
			"count":18228,
			"type":"SCALAR"
		},
		{
			"bufferView":24,
			"componentType":5126,
			"count":7764,
			"max":[
				1.594382405281067,
				0.49787721037864685,
				-0.04008191078901291
			],
			"min":[
				-1.595881700515747,
				-0.4923867881298065,
				-0.12860390543937683
			],
			"type":"VEC3"
		},
		{
			"bufferView":25,
			"componentType":5126,
			"count":7764,
			"type":"VEC3"
		},
		{
			"bufferView":26,
			"componentType":5126,
			"count":7764,
			"type":"VEC2"
		},
		{
			"bufferView":27,
			"componentType":5123,
			"count":42750,
			"type":"SCALAR"
		},
		{
			"bufferView":28,
			"componentType":5126,
			"count":1496,
			"max":[
				1.394382357597351,
				0.49787721037864685,
				-0.04008191078901291
			],
			"min":[
				-1.5921006202697754,
				-0.4923867881298065,
				-0.12860390543937683
			],
			"type":"VEC3"
		},
		{
			"bufferView":29,
			"componentType":5126,
			"count":1496,
			"type":"VEC3"
		},
		{
			"bufferView":30,
			"componentType":5126,
			"count":1496,
			"type":"VEC2"
		},
		{
			"bufferView":31,
			"componentType":5123,
			"count":8250,
			"type":"SCALAR"
		},
		{
			"bufferView":32,
			"componentType":5126,
			"count":675,
			"max":[
				1.693381428718567,
				0.6002421975135803,
				0.119918093085289
			],
			"min":[
				-1.694880485534668,
				-0.5947518348693848,
				-0.04008191078901291
			],
			"type":"VEC3"
		},
		{
			"bufferView":33,
			"componentType":5126,
			"count":675,
			"type":"VEC3"
		},
		{
			"bufferView":34,
			"componentType":5126,
			"count":675,
			"type":"VEC2"
		},
		{
			"bufferView":35,
			"componentType":5123,
			"count":3168,
			"type":"SCALAR"
		},
		{
			"bufferView":36,
			"componentType":5126,
			"count":63,
			"max":[
				1,
				1,
				1
			],
			"min":[
				-1,
				0.9036159515380859,
				-1
			],
			"type":"VEC3"
		},
		{
			"bufferView":37,
			"componentType":5126,
			"count":63,
			"type":"VEC3"
		},
		{
			"bufferView":38,
			"componentType":5126,
			"count":63,
			"type":"VEC2"
		},
		{
			"bufferView":39,
			"componentType":5123,
			"count":228,
			"type":"SCALAR"
		},
		{
			"bufferView":40,
			"componentType":5126,
			"count":33,
			"max":[
				1,
				1,
				1
			],
			"min":[
				-1,
				0.9036159515380859,
				-1
			],
			"type":"VEC3"
		},
		{
			"bufferView":41,
			"componentType":5126,
			"count":33,
			"type":"VEC3"
		},
		{
			"bufferView":42,
			"componentType":5126,
			"count":33,
			"type":"VEC2"
		},
		{
			"bufferView":43,
			"componentType":5123,
			"count":84,
			"type":"SCALAR"
		}
	],
	"bufferViews":[
		{
			"buffer":0,
			"byteLength":8592,
			"byteOffset":0,
			"target":34962
		},
		{
			"buffer":0,
			"byteLength":8592,
			"byteOffset":8592,
			"target":34962
		},
		{
			"buffer":0,
			"byteLength":5728,
			"byteOffset":17184,
			"target":34962
		},
		{
			"buffer":0,
			"byteLength":2928,
			"byteOffset":22912,
			"target":34963
		},
		{
			"buffer":0,
			"byteLength":336,
			"byteOffset":25840,
			"target":34962
		},
		{
			"buffer":0,
			"byteLength":336,
			"byteOffset":26176,
			"target":34962
		},
		{
			"buffer":0,
			"byteLength":224,
			"byteOffset":26512,
			"target":34962
		},
		{
			"buffer":0,
			"byteLength":156,
			"byteOffset":26736,
			"target":34963
		},
		{
			"buffer":0,
			"byteLength":5376,
			"byteOffset":26892,
			"target":34962
		},
		{
			"buffer":0,
			"byteLength":5376,
			"byteOffset":32268,
			"target":34962
		},
		{
			"buffer":0,
			"byteLength":3584,
			"byteOffset":37644,
			"target":34962
		},
		{
			"buffer":0,
			"byteLength":1836,
			"byteOffset":41228,
			"target":34963
		},
		{
			"buffer":0,
			"byteLength":3312,
			"byteOffset":43064,
			"target":34962
		},
		{
			"buffer":0,
			"byteLength":3312,
			"byteOffset":46376,
			"target":34962
		},
		{
			"buffer":0,
			"byteLength":2208,
			"byteOffset":49688,
			"target":34962
		},
		{
			"buffer":0,
			"byteLength":1104,
			"byteOffset":51896,
			"target":34963
		},
		{
			"buffer":0,
			"byteLength":6564,
			"byteOffset":53000,
			"target":34962
		},
		{
			"buffer":0,
			"byteLength":6564,
			"byteOffset":59564,
			"target":34962
		},
		{
			"buffer":0,
			"byteLength":4376,
			"byteOffset":66128,
			"target":34962
		},
		{
			"buffer":0,
			"byteLength":1596,
			"byteOffset":70504,
			"target":34963
		},
		{
			"buffer":0,
			"byteLength":48336,
			"byteOffset":72100,
			"target":34962
		},
		{
			"buffer":0,
			"byteLength":48336,
			"byteOffset":120436,
			"target":34962
		},
		{
			"buffer":0,
			"byteLength":32224,
			"byteOffset":168772,
			"target":34962
		},
		{
			"buffer":0,
			"byteLength":36456,
			"byteOffset":200996,
			"target":34963
		},
		{
			"buffer":0,
			"byteLength":93168,
			"byteOffset":237452,
			"target":34962
		},
		{
			"buffer":0,
			"byteLength":93168,
			"byteOffset":330620,
			"target":34962
		},
		{
			"buffer":0,
			"byteLength":62112,
			"byteOffset":423788,
			"target":34962
		},
		{
			"buffer":0,
			"byteLength":85500,
			"byteOffset":485900,
			"target":34963
		},
		{
			"buffer":0,
			"byteLength":17952,
			"byteOffset":571400,
			"target":34962
		},
		{
			"buffer":0,
			"byteLength":17952,
			"byteOffset":589352,
			"target":34962
		},
		{
			"buffer":0,
			"byteLength":11968,
			"byteOffset":607304,
			"target":34962
		},
		{
			"buffer":0,
			"byteLength":16500,
			"byteOffset":619272,
			"target":34963
		},
		{
			"buffer":0,
			"byteLength":8100,
			"byteOffset":635772,
			"target":34962
		},
		{
			"buffer":0,
			"byteLength":8100,
			"byteOffset":643872,
			"target":34962
		},
		{
			"buffer":0,
			"byteLength":5400,
			"byteOffset":651972,
			"target":34962
		},
		{
			"buffer":0,
			"byteLength":6336,
			"byteOffset":657372,
			"target":34963
		},
		{
			"buffer":0,
			"byteLength":756,
			"byteOffset":663708,
			"target":34962
		},
		{
			"buffer":0,
			"byteLength":756,
			"byteOffset":664464,
			"target":34962
		},
		{
			"buffer":0,
			"byteLength":504,
			"byteOffset":665220,
			"target":34962
		},
		{
			"buffer":0,
			"byteLength":456,
			"byteOffset":665724,
			"target":34963
		},
		{
			"buffer":0,
			"byteLength":396,
			"byteOffset":666180,
			"target":34962
		},
		{
			"buffer":0,
			"byteLength":396,
			"byteOffset":666576,
			"target":34962
		},
		{
			"buffer":0,
			"byteLength":264,
			"byteOffset":666972,
			"target":34962
		},
		{
			"buffer":0,
			"byteLength":168,
			"byteOffset":667236,
			"target":34963
		}
	],
	"samplers":[
		{
			"magFilter":9729,
			"minFilter":9987
		}
	],
	"buffers":[
		{
			"byteLength":667404,
			"uri":"scene.bin"
		}
	]
}
