{
	"asset":{
		"generator":"Khronos glTF Blender I/O v4.0.44",
		"version":"2.0"
	},
	"extensionsUsed":[
		"KHR_materials_specular",
		"KHR_materials_ior",
		"KHR_lights_punctual"
	],
	"extensionsRequired":[
		"KHR_lights_punctual"
	],
	"extensions":{
		"KHR_lights_punctual":{
			"lights":[
				{
					"color":[
						1,
						0.8100746273994446,
						0.6598950624465942
					],
					"intensity":1.087028338258066,
					"type":"point",
					"name":"Point"
				}
			]
		}
	},
	"scene":0,
	"scenes":[
		{
			"name":"Scene",
			"nodes":[
				0,
				1,
				2,
				3,
				4,
				5,
				6,
				7
			]
		}
	],
	"nodes":[
		{
			"mesh":0,
			"name":"Monitor",
			"scale":[
				0.15931612253189087,
				0.15931612253189087,
				0.15931612253189087
			]
		},
		{
			"mesh":1,
			"name":"Mouse",
			"rotation":[
				0.7069106101989746,
				-0.7069104313850403,
				-0.016658484935760498,
				0.016658484935760498
			],
			"scale":[
				0.01811854913830757,
				0.010959610342979431,
				0.01811854913830757
			]
		},
		{
			"mesh":2,
			"name":"Keyboard",
			"rotation":[
				0.7069709897041321,
				0.013856811448931694,
				-0.01385681051760912,
				0.7069711089134216
			],
			"scale":[
				0.08854097127914429,
				0.08974609524011612,
				0.08974586427211761
			]
		},
		{
			"mesh":3,
			"name":"Desk",
			"scale":[
				0.5658069849014282,
				0.061521999537944794,
				0.30000001192092896
			],
			"translation":[
				0,
				0.005382324568927288,
				0
			]
		},
		{
			"mesh":4,
			"name":"Pad",
			"rotation":[
				0,
				0.006486957892775536,
				0,
				0.9999789595603943
			],
			"scale":[
				0.4000000059604645,
				0.03112548217177391,
				0.17499999701976776
			]
		},
		{
			"extensions":{
				"KHR_lights_punctual":{
					"light":0
				}
			},
			"name":"Point",
			"rotation":[
				-0.7071068286895752,
				0,
				0,
				0.7071068286895752
			],
			"translation":[
				0,
				0.5363239645957947,
				0
			]
		},
		{
			"mesh":5,
			"name":"Display",
			"scale":[
				0.15931612253189087,
				0.15931612253189087,
				0.15931612253189087
			]
		},
		{
			"camera":0,
			"name":"Camera",
			"rotation":[
				-0.05084231495857239,
				0,
				0,
				0.9987066984176636
			],
			"translation":[
				0,
				0.5809954404830933,
				2.82772159576416
			]
		}
	],
	"cameras":[
		{
			"name":"Camera",
			"perspective":{
				"aspectRatio":1.7777777777777777,
				"yfov":0.33435006292381547,
				"zfar":1000,
				"znear":0.10000000149011612
			},
			"type":"perspective"
		}
	],
	"materials":[
		{
			"doubleSided":true,
			"name":"Main MAt",
			"pbrMetallicRoughness":{
				"baseColorFactor":[
					0,
					0,
					0,
					1
				],
				"metallicFactor":0,
				"roughnessFactor":0.5
			}
		},
		{
			"doubleSided":true,
			"name":"Main",
			"pbrMetallicRoughness":{
				"baseColorFactor":[
					0.800000011920929,
					0.800000011920929,
					0.800000011920929,
					1
				],
				"metallicFactor":0,
				"roughnessFactor":0.5
			}
		},
		{
			"doubleSided":true,
			"name":"Stand",
			"pbrMetallicRoughness":{
				"baseColorFactor":[
					0.16971692442893982,
					0,
					0.0018702945671975613,
					1
				],
				"metallicFactor":0,
				"roughnessFactor":0.5
			}
		},
		{
			"doubleSided":true,
			"name":"Material.002",
			"pbrMetallicRoughness":{
				"baseColorFactor":[
					0.4460536539554596,
					0.4460536539554596,
					0.4460536539554596,
					1
				],
				"metallicFactor":0,
				"roughnessFactor":0.30454546213150024
			}
		},
		{
			"doubleSided":true,
			"extensions":{
				"KHR_materials_specular":{
					"specularFactor":0
				},
				"KHR_materials_ior":{
					"ior":1.4500000476837158
				}
			},
			"name":"Small_Buttons",
			"normalTexture":{
				"index":0
			},
			"pbrMetallicRoughness":{
				"baseColorTexture":{
					"index":1
				},
				"metallicFactor":0
			}
		},
		{
			"doubleSided":true,
			"extensions":{
				"KHR_materials_specular":{
					"specularFactor":0
				},
				"KHR_materials_ior":{
					"ior":1.4500000476837158
				}
			},
			"name":"Big_Buttons",
			"normalTexture":{
				"index":2
			},
			"pbrMetallicRoughness":{
				"baseColorTexture":{
					"index":3
				},
				"metallicFactor":0
			}
		},
		{
			"doubleSided":true,
			"extensions":{
				"KHR_materials_specular":{
					"specularFactor":0
				},
				"KHR_materials_ior":{
					"ior":1.4500000476837158
				}
			},
			"name":"Chassis",
			"normalTexture":{
				"index":4
			},
			"pbrMetallicRoughness":{
				"baseColorTexture":{
					"index":5
				},
				"metallicRoughnessTexture":{
					"index":6
				}
			}
		},
		{
			"doubleSided":true,
			"name":"Material.001",
			"pbrMetallicRoughness":{
				"baseColorFactor":[
					0,
					0,
					0,
					1
				],
				"metallicFactor":0,
				"roughnessFactor":0.8808290362358093
			}
		},
		{
			"doubleSided":true,
			"name":"Material",
			"pbrMetallicRoughness":{
				"baseColorFactor":[
					0.04222085326910019,
					0.02362906187772751,
					0.010742737911641598,
					1
				],
				"metallicFactor":0
			}
		},
		{
			"doubleSided":true,
			"name":"Monitor_Display",
			"pbrMetallicRoughness":{
				"baseColorTexture":{
					"index":7
				},
				"metallicFactor":0,
				"roughnessFactor":0.5
			}
		}
	],
	"meshes":[
		{
			"name":"Cube.002",
			"primitives":[
				{
					"attributes":{
						"POSITION":0,
						"NORMAL":1,
						"TEXCOORD_0":2
					},
					"indices":3,
					"material":0
				},
				{
					"attributes":{
						"POSITION":4,
						"NORMAL":5,
						"TEXCOORD_0":6
					},
					"indices":7,
					"material":1
				},
				{
					"attributes":{
						"POSITION":8,
						"NORMAL":9,
						"TEXCOORD_0":10
					},
					"indices":11,
					"material":2
				}
			]
		},
		{
			"name":"Mesh.002",
			"primitives":[
				{
					"attributes":{
						"POSITION":12,
						"NORMAL":13,
						"TEXCOORD_0":14
					},
					"indices":15,
					"material":3
				}
			]
		},
		{
			"name":"Small Buttons.001",
			"primitives":[
				{
					"attributes":{
						"POSITION":16,
						"NORMAL":17,
						"TEXCOORD_0":18
					},
					"indices":19,
					"material":4
				},
				{
					"attributes":{
						"POSITION":20,
						"NORMAL":21,
						"TEXCOORD_0":22
					},
					"indices":23,
					"material":5
				},
				{
					"attributes":{
						"POSITION":24,
						"NORMAL":25,
						"TEXCOORD_0":26
					},
					"indices":27,
					"material":6
				}
			]
		},
		{
			"name":"Cube",
			"primitives":[
				{
					"attributes":{
						"POSITION":28,
						"NORMAL":29,
						"TEXCOORD_0":30
					},
					"indices":31,
					"material":7
				}
			]
		},
		{
			"name":"Cube.004",
			"primitives":[
				{
					"attributes":{
						"POSITION":32,
						"NORMAL":33,
						"TEXCOORD_0":34
					},
					"indices":35,
					"material":8
				}
			]
		},
		{
			"name":"Cube.001",
			"primitives":[
				{
					"attributes":{
						"POSITION":36,
						"NORMAL":37,
						"TEXCOORD_0":38
					},
					"indices":39,
					"material":9
				}
			]
		}
	],
	"textures":[
		{
			"sampler":0,
			"source":0
		},
		{
			"sampler":0,
			"source":1
		},
		{
			"sampler":0,
			"source":2
		},
		{
			"sampler":0,
			"source":3
		},
		{
			"sampler":0,
			"source":4
		},
		{
			"sampler":0,
			"source":5
		},
		{
			"sampler":0,
			"source":6
		},
		{
			"sampler":0,
			"source":7
		}
	],
	"images":[
		{
			"mimeType":"image/png",
			"name":"Small_Buttons_normal",
			"uri":"textures/Small_Buttons_normal.png"
		},
		{
			"mimeType":"image/jpeg",
			"name":"Small_Buttons_albedo",
			"uri":"textures/Small_Buttons_albedo.jpg"
		},
		{
			"mimeType":"image/png",
			"name":"Big_Buttons_normal",
			"uri":"textures/Big_Buttons_normal.png"
		},
		{
			"mimeType":"image/jpeg",
			"name":"Big_Buttons_albedo",
			"uri":"textures/Big_Buttons_albedo.jpg"
		},
		{
			"mimeType":"image/png",
			"name":"Chassis_normal",
			"uri":"textures/Chassis_normal.png"
		},
		{
			"mimeType":"image/jpeg",
			"name":"Chassis_albedo",
			"uri":"textures/Chassis_albedo.jpg"
		},
		{
			"mimeType":"image/png",
			"name":"Chassis_metallic",
			"uri":"textures/Chassis_metallic.png"
		},
		{
			"mimeType":"image/png",
			"name":"monitor",
			"uri":"textures/monitor.png"
		}
	],
	"accessors":[
		{
			"bufferView":0,
			"componentType":5126,
			"count":704,
			"max":[
				1.1618634462356567,
				1.3191508054733276,
				-0.7114884257316589
			],
			"min":[
				-0.8488702774047852,
				0.05027499794960022,
				-1.8246454000473022
			],
			"type":"VEC3"
		},
		{
			"bufferView":1,
			"componentType":5126,
			"count":704,
			"type":"VEC3"
		},
		{
			"bufferView":2,
			"componentType":5126,
			"count":704,
			"type":"VEC2"
		},
		{
			"bufferView":3,
			"componentType":5123,
			"count":1464,
			"type":"SCALAR"
		},
		{
			"bufferView":4,
			"componentType":5126,
			"count":448,
			"max":[
				2.0866715908050537,
				2.6862449645996094,
				-1.0914040803909302
			],
			"min":[
				-1.7618573904037476,
				0.6862450838088989,
				-1.3552950620651245
			],
			"type":"VEC3"
		},
		{
			"bufferView":5,
			"componentType":5126,
			"count":448,
			"type":"VEC3"
		},
		{
			"bufferView":6,
			"componentType":5126,
			"count":448,
			"type":"VEC2"
		},
		{
			"bufferView":7,
			"componentType":5123,
			"count":918,
			"type":"SCALAR"
		},
		{
			"bufferView":8,
			"componentType":5126,
			"count":276,
			"max":[
				0.5734338164329529,
				1.435755729675293,
				-1.3552583456039429
			],
			"min":[
				-0.2486194521188736,
				0.8919088840484619,
				-1.604635238647461
			],
			"type":"VEC3"
		},
		{
			"bufferView":9,
			"componentType":5126,
			"count":276,
			"type":"VEC3"
		},
		{
			"bufferView":10,
			"componentType":5126,
			"count":276,
			"type":"VEC2"
		},
		{
			"bufferView":11,
			"componentType":5123,
			"count":552,
			"type":"SCALAR"
		},
		{
			"bufferView":12,
			"componentType":5126,
			"count":4028,
			"max":[
				-0.6100324988365173,
				-12.198901176452637,
				-4.327386856079102
			],
			"min":[
				-2.615734815597534,
				-17.498945236206055,
				-10.299886703491211
			],
			"type":"VEC3"
		},
		{
			"bufferView":13,
			"componentType":5126,
			"count":4028,
			"type":"VEC3"
		},
		{
			"bufferView":14,
			"componentType":5126,
			"count":4028,
			"type":"VEC2"
		},
		{
			"bufferView":15,
			"componentType":5123,
			"count":18228,
			"type":"SCALAR"
		},
		{
			"bufferView":16,
			"componentType":5126,
			"count":7764,
			"max":[
				0.37479090690612793,
				1.8679457902908325,
				-0.2831563353538513
			],
			"min":[
				-2.8154730796813965,
				0.8776817321777344,
				-0.37167832255363464
			],
			"type":"VEC3"
		},
		{
			"bufferView":17,
			"componentType":5126,
			"count":7764,
			"type":"VEC3"
		},
		{
			"bufferView":18,
			"componentType":5126,
			"count":7764,
			"type":"VEC2"
		},
		{
			"bufferView":19,
			"componentType":5123,
			"count":42750,
			"type":"SCALAR"
		},
		{
			"bufferView":20,
			"componentType":5126,
			"count":1496,
			"max":[
				0.1747908592224121,
				1.8679457902908325,
				-0.2831563353538513
			],
			"min":[
				-2.811692237854004,
				0.8776817321777344,
				-0.37167832255363464
			],
			"type":"VEC3"
		},
		{
			"bufferView":21,
			"componentType":5126,
			"count":1496,
			"type":"VEC3"
		},
		{
			"bufferView":22,
			"componentType":5126,
			"count":1496,
			"type":"VEC2"
		},
		{
			"bufferView":23,
			"componentType":5123,
			"count":8250,
			"type":"SCALAR"
		},
		{
			"bufferView":24,
			"componentType":5126,
			"count":675,
			"max":[
				0.47378993034362793,
				1.9703106880187988,
				-0.12315632402896881
			],
			"min":[
				-2.9144721031188965,
				0.7753167152404785,
				-0.2831563353538513
			],
			"type":"VEC3"
		},
		{
			"bufferView":25,
			"componentType":5126,
			"count":675,
			"type":"VEC3"
		},
		{
			"bufferView":26,
			"componentType":5126,
			"count":675,
			"type":"VEC2"
		},
		{
			"bufferView":27,
			"componentType":5123,
			"count":3168,
			"type":"SCALAR"
		},
		{
			"bufferView":28,
			"componentType":5126,
			"count":63,
			"max":[
				1.0000035762786865,
				0.04825007915496826,
				1.0000101327896118
			],
			"min":[
				-0.9999964237213135,
				-0.0481339693069458,
				-0.9999898672103882
			],
			"type":"VEC3"
		},
		{
			"bufferView":29,
			"componentType":5126,
			"count":63,
			"type":"VEC3"
		},
		{
			"bufferView":30,
			"componentType":5126,
			"count":63,
			"type":"VEC2"
		},
		{
			"bufferView":31,
			"componentType":5123,
			"count":228,
			"type":"SCALAR"
		},
		{
			"bufferView":32,
			"componentType":5126,
			"count":33,
			"max":[
				0.9838055968284607,
				0.3551044464111328,
				1.5404796600341797
			],
			"min":[
				-1.016194462776184,
				0.25872039794921875,
				-0.4595203399658203
			],
			"type":"VEC3"
		},
		{
			"bufferView":33,
			"componentType":5126,
			"count":33,
			"type":"VEC3"
		},
		{
			"bufferView":34,
			"componentType":5126,
			"count":33,
			"type":"VEC2"
		},
		{
			"bufferView":35,
			"componentType":5123,
			"count":84,
			"type":"SCALAR"
		},
		{
			"bufferView":36,
			"componentType":5126,
			"count":28,
			"max":[
				2.029371738433838,
				2.628945827484131,
				-1.1158387660980225
			],
			"min":[
				-1.7045576572418213,
				0.7435455322265625,
				-1.1158387660980225
			],
			"type":"VEC3"
		},
		{
			"bufferView":37,
			"componentType":5126,
			"count":28,
			"type":"VEC3"
		},
		{
			"bufferView":38,
			"componentType":5126,
			"count":28,
			"type":"VEC2"
		},
		{
			"bufferView":39,
			"componentType":5123,
			"count":78,
			"type":"SCALAR"
		}
	],
	"bufferViews":[
		{
			"buffer":0,
			"byteLength":8448,
			"byteOffset":0,
			"target":34962
		},
		{
			"buffer":0,
			"byteLength":8448,
			"byteOffset":8448,
			"target":34962
		},
		{
			"buffer":0,
			"byteLength":5632,
			"byteOffset":16896,
			"target":34962
		},
		{
			"buffer":0,
			"byteLength":2928,
			"byteOffset":22528,
			"target":34963
		},
		{
			"buffer":0,
			"byteLength":5376,
			"byteOffset":25456,
			"target":34962
		},
		{
			"buffer":0,
			"byteLength":5376,
			"byteOffset":30832,
			"target":34962
		},
		{
			"buffer":0,
			"byteLength":3584,
			"byteOffset":36208,
			"target":34962
		},
		{
			"buffer":0,
			"byteLength":1836,
			"byteOffset":39792,
			"target":34963
		},
		{
			"buffer":0,
			"byteLength":3312,
			"byteOffset":41628,
			"target":34962
		},
		{
			"buffer":0,
			"byteLength":3312,
			"byteOffset":44940,
			"target":34962
		},
		{
			"buffer":0,
			"byteLength":2208,
			"byteOffset":48252,
			"target":34962
		},
		{
			"buffer":0,
			"byteLength":1104,
			"byteOffset":50460,
			"target":34963
		},
		{
			"buffer":0,
			"byteLength":48336,
			"byteOffset":51564,
			"target":34962
		},
		{
			"buffer":0,
			"byteLength":48336,
			"byteOffset":99900,
			"target":34962
		},
		{
			"buffer":0,
			"byteLength":32224,
			"byteOffset":148236,
			"target":34962
		},
		{
			"buffer":0,
			"byteLength":36456,
			"byteOffset":180460,
			"target":34963
		},
		{
			"buffer":0,
			"byteLength":93168,
			"byteOffset":216916,
			"target":34962
		},
		{
			"buffer":0,
			"byteLength":93168,
			"byteOffset":310084,
			"target":34962
		},
		{
			"buffer":0,
			"byteLength":62112,
			"byteOffset":403252,
			"target":34962
		},
		{
			"buffer":0,
			"byteLength":85500,
			"byteOffset":465364,
			"target":34963
		},
		{
			"buffer":0,
			"byteLength":17952,
			"byteOffset":550864,
			"target":34962
		},
		{
			"buffer":0,
			"byteLength":17952,
			"byteOffset":568816,
			"target":34962
		},
		{
			"buffer":0,
			"byteLength":11968,
			"byteOffset":586768,
			"target":34962
		},
		{
			"buffer":0,
			"byteLength":16500,
			"byteOffset":598736,
			"target":34963
		},
		{
			"buffer":0,
			"byteLength":8100,
			"byteOffset":615236,
			"target":34962
		},
		{
			"buffer":0,
			"byteLength":8100,
			"byteOffset":623336,
			"target":34962
		},
		{
			"buffer":0,
			"byteLength":5400,
			"byteOffset":631436,
			"target":34962
		},
		{
			"buffer":0,
			"byteLength":6336,
			"byteOffset":636836,
			"target":34963
		},
		{
			"buffer":0,
			"byteLength":756,
			"byteOffset":643172,
			"target":34962
		},
		{
			"buffer":0,
			"byteLength":756,
			"byteOffset":643928,
			"target":34962
		},
		{
			"buffer":0,
			"byteLength":504,
			"byteOffset":644684,
			"target":34962
		},
		{
			"buffer":0,
			"byteLength":456,
			"byteOffset":645188,
			"target":34963
		},
		{
			"buffer":0,
			"byteLength":396,
			"byteOffset":645644,
			"target":34962
		},
		{
			"buffer":0,
			"byteLength":396,
			"byteOffset":646040,
			"target":34962
		},
		{
			"buffer":0,
			"byteLength":264,
			"byteOffset":646436,
			"target":34962
		},
		{
			"buffer":0,
			"byteLength":168,
			"byteOffset":646700,
			"target":34963
		},
		{
			"buffer":0,
			"byteLength":336,
			"byteOffset":646868,
			"target":34962
		},
		{
			"buffer":0,
			"byteLength":336,
			"byteOffset":647204,
			"target":34962
		},
		{
			"buffer":0,
			"byteLength":224,
			"byteOffset":647540,
			"target":34962
		},
		{
			"buffer":0,
			"byteLength":156,
			"byteOffset":647764,
			"target":34963
		}
	],
	"samplers":[
		{
			"magFilter":9729,
			"minFilter":9987
		}
	],
	"buffers":[
		{
			"byteLength":647920,
			"uri":"scene.bin"
		}
	]
}
